<svg width="22" height="22" viewBox="0 0 22 22" fill="none" xmlns="http://www.w3.org/2000/svg">
<path d="M11.5856 16.1379V5.93105C11.5856 5.79312 11.5166 5.72415 11.3787 5.72415C8.41319 5.72415 6.06836 8.06898 6.06836 11.0345C6.06836 14 8.41319 16.3448 11.3787 16.3448C11.4477 16.4138 11.5856 16.2759 11.5856 16.1379Z" fill="#5C5F61"/>
<path d="M16.9653 10.8965C16.8274 8.34482 15.0343 6.27585 12.5515 5.86206C12.4136 5.86206 12.3446 5.93103 12.2756 6.06896C12.2756 6.13792 12.2756 6.20689 12.3446 6.27585C13.7929 7.3793 14.6894 9.10344 14.6894 10.9655C14.8963 12.9655 13.9998 14.8965 12.3446 16.069C12.2756 16.1379 12.2067 16.2759 12.2756 16.3448C12.3446 16.4138 12.4136 16.4138 12.4825 16.4138C12.4825 16.4138 12.4825 16.4138 12.5515 16.4138C15.1722 15.931 17.0343 13.5862 16.9653 10.8965Z" fill="#5C5F61"/>
<path d="M11.3105 4.55172C11.6553 4.55172 11.8622 4.27586 11.8622 4V0.551724C11.8622 0.206896 11.5864 0 11.3105 0C10.9657 0 10.7588 0.275862 10.7588 0.551724V3.93103C10.7588 4.27586 11.0347 4.55172 11.3105 4.55172Z" fill="#5C5F61"/>
<path d="M5.93066 6.4138C6.13756 6.62069 6.48239 6.62069 6.75825 6.4138C6.96515 6.2069 6.96515 5.86207 6.75825 5.58621L4.41342 3.24138C4.20653 3.03449 3.8617 3.03449 3.58584 3.24138C3.37894 3.44828 3.37894 3.79311 3.58584 4.06897L5.93066 6.4138Z" fill="#5C5F61"/>
<path d="M11.3105 17.5172C10.9657 17.5172 10.7588 17.7931 10.7588 18.069V21.4483C10.7588 21.7931 11.0347 22 11.3105 22C11.5864 22 11.8622 21.7241 11.8622 21.4483V18.069C11.9312 17.7931 11.6553 17.5172 11.3105 17.5172Z" fill="#5C5F61"/>
<path d="M6.34446 15.4483C6.20653 15.4483 6.06859 15.5172 5.93066 15.5862L3.58584 17.931C3.37894 18.1379 3.37894 18.4828 3.58584 18.7586C3.79273 18.9655 4.13756 18.9655 4.41342 18.7586L6.75825 16.4138C6.96515 16.2069 6.96515 15.8621 6.75825 15.5862C6.62032 15.5172 6.48239 15.4483 6.34446 15.4483Z" fill="#5C5F61"/>
<path d="M4.82759 11.0345C4.82759 10.6897 4.55172 10.4828 4.27586 10.4828H0.551724C0.206897 10.4828 0 10.7586 0 11.1034C0 11.3793 0.275862 11.6552 0.551724 11.6552H4.2069C4.55172 11.5862 4.82759 11.3793 4.82759 11.0345Z" fill="#5C5F61"/>
<path d="M18.2755 4.55173C17.5858 4.34484 17.4479 4.20691 17.31 3.31036C17.31 3.24139 17.241 3.17242 17.172 3.17242C17.1031 3.17242 17.0341 3.24139 17.0341 3.31036C16.8962 4.20691 16.7582 4.34484 16.0686 4.55173C15.9996 4.55173 15.9307 4.68967 15.9307 4.75863C15.9307 4.8276 15.9996 4.8276 16.0686 4.89656C16.7582 5.10346 16.8962 5.24139 17.0341 6.13794C17.0341 6.20691 17.1031 6.27587 17.172 6.27587C17.241 6.27587 17.31 6.20691 17.31 6.13794C17.4479 5.24139 17.5858 5.10346 18.2755 4.89656C18.3445 4.89656 18.4134 4.75863 18.4134 4.68967C18.3445 4.55173 18.3445 4.55173 18.2755 4.55173Z" fill="#5C5F61"/>
<path d="M18.2755 17.5172C17.5858 17.3104 17.4479 17.1724 17.31 16.2759C17.31 16.2069 17.241 16.1379 17.172 16.1379C17.1031 16.1379 17.0341 16.2069 17.0341 16.2759C16.8962 17.1724 16.7582 17.3104 16.0686 17.5172C15.9996 17.5172 15.9307 17.6552 15.9307 17.7241C15.9307 17.7931 15.9996 17.7931 16.0686 17.8621C16.7582 18.069 16.8962 18.2069 17.0341 19.1035C17.0341 19.1724 17.1031 19.2414 17.172 19.2414C17.241 19.2414 17.31 19.1724 17.31 19.1035C17.4479 18.2069 17.5858 18.069 18.2755 17.8621C18.3445 17.8621 18.4134 17.7931 18.4134 17.7241C18.4134 17.5862 18.3445 17.5172 18.2755 17.5172Z" fill="#5C5F61"/>
<path d="M21.5175 10.8276C20.552 10.5517 20.4141 10.2759 20.2072 9.10345C20.2072 9.03448 20.1382 8.96552 20.0692 8.96552C20.0003 8.96552 19.9313 9.03448 19.9313 9.10345C19.7244 10.2759 19.5175 10.4828 18.552 10.7586C18.483 10.7586 18.4141 10.8276 18.4141 10.9655C18.4141 11.0345 18.483 11.0345 18.483 11.1034C19.4485 11.3793 19.5865 11.6552 19.7934 12.8276C19.7934 12.8965 19.8623 12.9655 19.9313 12.9655C20.0003 12.9655 20.0692 12.8965 20.0692 12.8276C20.2761 11.6552 20.483 11.4483 21.4485 11.1724C21.5175 11.1724 21.5865 11.1034 21.5865 10.9655C21.5865 10.8965 21.5865 10.8276 21.5175 10.8276Z" fill="#5C5F61"/>
</svg>
